
<svg xmlns="http://www.w3.org/2000/svg" version="1.1" xmlns:xlink="http://www.w3.org/1999/xlink" preserveAspectRatio="none" x="0px" y="0px" width="400px" height="200px" viewBox="0 0 400 200">
<defs>
<g id="Layer1_0_FILL">
<path fill="#352638" stroke="none" d="
M 401.2 -0.95
L -1.3 -0.95 -1.3 201.6 401.2 201.6 401.2 -0.95 Z"/>
</g>

<g id="Layer0_0_FILL">
<path fill="#CAC7CD" stroke="none" d="
M 377.1 60.6
Q 376.3 60.55 374.7 60.65
L 371.75 60.9
Q 370.85 61 369.6 61.55
L 369 61.95
Q 368.7 62.25 368.7 62.6 368.7 63.1 369.4 63.4 369.8 63.5 370.5 63.3
L 371.15 63.05 372.15 62.85 373.45 62.75
Q 374.1 62.7 375.4 62.7
L 376.4 62.5
Q 376.95 62.5 377.2 62.45 377.4 62.4 377.75 62.15 378.05 61.95 378.15 61.75 378.4 61.35 378.1 60.95 377.8 60.6 377.1 60.6
M 363.55 76.25
Q 363.45 77 363.65 77.25 363.95 77.75 364.95 77.65 366.05 77.6 369.55 77.15 370.5 77.05 370.75 76.55 370.9 76.2 370.7 75.85 370.5 75.5 370.15 75.4 369.7 75.2 368.75 75.3
L 365.4 75.7
Q 365.64375 73.9525390625 366.2 70.85 366.478515625 70.9673828125 366.85 71.05 368.95 71.55 370.1 71.45 370.4 71.45 370.7 71.3 371 71.2 371.1 70.85 371.15 70.4 370.65 70.1 370.1 69.65 369.1 69.4 367.95 69.15 367.35 68.95 366.9517578125 68.8171875 366.65 68.8
L 367.1 67
Q 367.25 64.95 367.55 64
L 367.75 63.4
Q 367.75 63 367.55 62.8 367.15 62.5 366.7 62.85 366.45 63.15 366.25 63.65 365.9 64.65 365.75 65.9
L 365.6 66.75 365.15 68.3 363.55 76.25
M 352.85 70.2
Q 352.55 71.15 352.65 72.65 352.65 74.65 353.45 75.5 354.25 76.45 355.6 76.35 356.75 76.3 357.9 75.55 358.3 75.3 358.6 74.95 358.9 74.45 358.75 74.05 358.45 73.3 357.3 73.6 356.3 74.1 355.75 74.2 355.3 74.3 355.1 74.15 354.8 73.95 354.8 73.55 354.35 71.5 355.4 69.55
L 357.6 66.35
Q 358 65.75 358.3 65.5 359.1 64.9 360.2 65.15 360.5 65.2 360.85 65.5 361.05 65.8 361.3 65.85 361.5 65.9 361.7 65.7 361.85 65.5 361.85 65.2 361.9 64.55 361.45 63.95 361 63.35 360.35 63.1 359.05 62.65 357.65 63.45 356.6 64.05 355.65 65.35
L 354.05 67.75
Q 353.05 69.25 352.85 70.2
M 348.5 64.9
Q 348.3 65.1 348.25 65.35
L 346.55 69.5
Q 345.65 71.55 345.4 72.8 345.15 74.15 345.05 74.35
L 344.95 74.7 343.4 74.7
Q 342.8 74.7 342.55 74.9 342.25 75.1 342.2 75.45 342.15 75.85 342.35 76.05 342.7 76.45 343.55 76.45 346.55 76.45 347.15 76.55 347.45 76.6 348 76.7 348.45 76.7 348.75 76.4 349.15 75.85 348.65 75.25 348.35 74.9 347.55 74.7
L 347.3 74.7
Q 347.353125 74.4244140625 347.4 74.05
L 349.3 67.2 349.35 65.75
Q 349.35 65.2 349.2 65.05 348.9 64.6 348.5 64.9
M 352.05 63.9
Q 352.85 63.9 353.25 63.6 353.55 63.4 353.6 63.05 353.7 62.7 353.45 62.5 353.25 62.25 352.75 62.25 349.6 62.05 346.45 62.55 345.5 62.75 345.4 63.25 345.35 63.75 345.9 64.05 346.2 64.15 346.9 64.15
L 352.05 63.9
M 340.85 66.5
Q 341.7 64.8 341.6 64 341.5 63.6 341.35 63.45 340.95 63.2 340.5 63.45 339.6 63.85 338.8 65.45 336.75 69.4 335.2 73.45
L 335.45 67.65
Q 335.45 65.05 335.4 64.5
L 335.2 63.1
Q 335.1 62.75 334.95 62.7 334.65 62.55 334.45 62.85
L 334.3 63.45 333.75 73.45
Q 333.65 75.25 333.45 76.95 333.35 77.7 333.45 78 333.55 78.65 334.1 78.8 334.4 78.9 334.9 78.6 335.15 78.4 335.45 77.9 336.5 76.3 338.05 72.45 339.4 69.2 340.85 66.5
M 327.5 70.2
Q 327.3 70 326.75 70
L 322.85 69.95
Q 322.195703125 69.8681640625 321.65 69.95 322.17421875 67.971875 322.5 66.25 322.8228515625 66.2443359375 323.6 66.05 324.2 65.9 326.25 65.85 327.9 65.8 328.8 65.35 329.25 65.15 329.4 64.85 329.7 64.45 329.45 64.1 329.25 63.85 328.6 63.75 325.65 63.5 323.5 63.55 322.979296875 63.55 322.55 63.65 322.541796875 63.6208984375 322.5 63.6 322.15 63.4 321.7 63.5 321.25 63.65 321.05 64
L 320.85 64.6 318.75 75.25
Q 318.35 77.3 318.7 78.3
L 319.1 78.2 320.95 72.35
Q 321.1498046875 72.4 321.4 72.4
L 322.4 72.2
Q 322.8 72.1 324.65 71.95 326.05 71.85 326.85 71.5 327.3 71.35 327.55 71 327.85 70.55 327.5 70.2
M 324.95 77.4
Q 325.75 77.2 325.9 76.6
L 325.8 76.05
Q 325.5 75.5 324.9 75.25 324.5 75.05 323.7 74.95 322.75 74.85 322.2 75.1 321.4 75.35 321.15 76.15 321 76.65 321.3 77.1 321.6 77.6 322.15 77.7 322.3 77.7 323.65 77.45
L 324.95 77.4
M 310.7 64.85
Q 312.55 65.8 313.2 66.7 314.2 68.05 314.3 70.4 314.3 71.15 314.15 71.8 314.05 72.1 313.45 73.2
L 312.6 74.4
Q 311.9 75.15 310.4 75.8 308.4 76.65 306.2 76.85 305.45 76.85 305.3 76.8
L 304.5 76.35 305.15 72.55
Q 305.5 70.8 306.25 68.55 306.95 66.5 306.85 65.8 306.85 65.55 306.75 65.5 306.5 65.4 306.3 65.75 303.95 69.5 303.1 73.8
L 302.25 79.2
Q 302 81.1 302 81.4 301.9 82.25 302.3 82.7 302.65 83 303.1 82.9 303.6 82.75 303.75 82.35 303.8 82.25 303.8 81.6 303.8 80.30546875 304.1 78.45 305.374609375 79.0208984375 307.3 78.7 309.15 78.4 310.8 77.75 312.6 77.05 313.6 76.1 314.35 75.4 315.3 73.8 315.8 73.05 316 72.4 316.25 71.55 316.15 70.3 315.95 66.7 313.9 64.85 313.05 64.05 310.75 63
L 309.35 62.45
Q 308.45 62.15 307.5 62.15 306.4 62.25 306 62.65 305.85 62.8 305.85 63.05 305.9 63.25 306.25 63.25
L 307.4 63.45
Q 308.6 63.65 310.7 64.85
M 324.4 40.15
Q 324.6 39.75 324.45 39.25 324.25 38.8 323.85 38.6 322.85 38.2 321.75 39.4 321.25 39.85 320.35 40.95
L 317.05 45
Q 316.7958984375 44.6611328125 316.6 44.4
L 314.2 40.9
Q 314.15 40.7 313.9 40.55 313.65 40.45 313.5 40.65 313.4 40.75 313.5 40.9 313.55 41.55 314.1 42.45
L 316.25 46 315.1 47.45
Q 312.35 50.85 311.25 52.65
L 310.35 54.3
Q 310.15 54.7 310.15 54.85 310.15 55.25 310.45 55.3 310.65 55.35 311.05 55.05
L 317.45 48 320.95 53.75
Q 321.55 54.6 322.25 54.75 322.65 54.85 323.1 54.65 323.5 54.4 323.55 54 323.6 53.55 323.2 53.15
L 322.55 52.5 321.85 51.6
Q 319.06328125 47.29765625 318.6 46.75
L 319.05 46.3
Q 320.35 44.95 321.35 43.65 323.05 41.45 323.6 41 324.3 40.45 324.4 40.15
M 306.9 45.8
Q 306.7 46.05 306.6 46.7 306.55 47.65 305.95 50.65
L 305.5 52.85
Q 305.25 54.5 305.3 55.05 305.3 55.45 305.5 55.7 305.6 55.95 306.05 56.05 306.55 56.15 307 55.9 307.5 55.5 307.4 55.05
L 307.25 54.5 308.3 48.3
Q 308.35 47.55 308.2 46.65 308.2 46.1 307.9 45.8 307.35 45.35 306.9 45.8
M 309.4 41.45
Q 309.4 40.55 309.25 40.3 308.9 39.75 308.35 39.85 307.8 39.95 307.55 40.45 307.4 40.75 307.3 41.35
L 307.1 41.75
Q 306.8 42.5 307.2 43.15 307.7 43.85 308.5 43.75 309.4 43.55 309.55 42.8
L 309.4 41.45
M 293.25 40.05
Q 292.95 40.05 292.65 40.2 292.45 40.35 292.4 40.65 292.35 40.9 292.55 41.1 292.8 41.35 293.3 41.35 293.8845703125 41.4134765625 294.5 41.45
L 291.45 55.25
Q 291.15 56.55 291.65 57.05 291.95 57.3 292.4 57.25 292.9 57.15 293.1 56.8 293.2 56.65 293.3 55.9
L 294.5 50.5
Q 294.6919921875 50.55 294.9 50.55 295.6 50.5 296.35 50.15 296.9 50 297.25 49.65 297.65 49.15 297.5 48.7 297.35 48.25 296.7 47.95 295.976953125 47.609765625 294.9 47.6
L 295.6 41.5
Q 296.9609375 41.5283203125 298.45 41.45 299.75 41.35 300.4 41.35
L 301.6 41.45
Q 302.8 41.7 302.95 41.7 303.6 41.5 303.85 41.05 304.1 40.4 303.75 39.9 303.5 39.5 302.8 39.3 302 39.05 299.85 39.05
L 298.7 39.15 297.25 39.5
Q 296.45 39.75 295.6 39.8
L 293.25 40.05
M 313.6 15.8
Q 313.35 16.1 313.05 17 312.65 18.35 312.1 21.1 311.5 23.85 311.1 25.2 310.3 27.85 310.2 28.25 309.8 30 310.05 31.35 310.15 32.15 310.7 32.15 311.2 32.15 311.3 31.3 312.2 27.1 313.8 22.95 313.85 24 314.15 25.7 314.55 27.75 314.65 28.5 314.8 29.65 315 32 315.1 33.05 315.8 33.35 316.5 33.5 316.95 32.9 317.2 32.55 317.5 31.75 318.1 30 319.8 26.35 321.4 22.9 322 20.95 322.7 18.7 322.2 17.35 322.1 17.05 321.95 17.05
L 321.65 17.2
Q 320.95 18.05 320.35 19.45 320 20.25 319.35 21.85 318.45 24.3 316.75 27.75 316.15 24.8 316 23.2 315.9 19 315.7 16.95 315.6 16.25 315.45 15.9 315.2 15.4 314.65 15.25 314.05 15.2 313.6 15.8
M 304.3 19.55
Q 304.2 19.05 303.95 18.8 303.8 18.6 303.55 18.6 303.35 18.65 303.25 19
L 301.65 23.3 301.25 24.85
Q 301 26.75 300.85 27.25
L 299.95 29
Q 299.4541015625 29.946875 299.55 30.4 298.6669921875 30.554296875 298.05 30.6 297.25 30.75 297.2 30.75 296.7 30.95 296.65 31.35 296.55 31.9 297.1 32.15 297.4 32.3 298.05 32.3 298.75 32.3 300.5 32 302.05 31.75 302.95 31.8 303.35 31.8 303.5 31.9 303.7 32 304 32.4 304.35 32.65 304.8 32.55 305.25 32.4 305.45 32 305.6 31.65 305.4 31.1 305 30.25 303.95 30 303.35 29.8 302.1 29.9 301.9431640625 29.934765625 301.8 29.95
L 302.4 28.75
Q 302.8 27.75 302.95 26.95
L 303.15 25 303.45 24 304.25 20.1 304.3 19.55
M 307.3 17.45
Q 307.65 17.3 307.65 16.85 307.7 16.4 307.4 16.15 306.95 15.7 305.95 15.8 305.35 15.8 303.5 16.15 302 16.4 301.05 16.3 300.55 16.2 300.2 16.25 299.7 16.35 299.55 16.7 299.3 17.3 300 17.6 300.3 17.8 301.1 17.8
L 303 17.7
Q 303.6 17.6 304.7 17.4 305.7 17.25 306.4 17.4 307.1 17.5 307.3 17.45
M 287.8 19.6
Q 287.1 17.1 286.9 15.8 286.8 15.1 286.7 14.95 286.45 14.55 286 14.4 285.45 14.3 285.1 14.6 284.8 14.8 284.45 15.5
L 278.5 29.35
Q 278.25 30.25 278.4 30.85 278.6 31.75 279.45 31.75 280.2 31.75 280.55 30.95 280.75 30.6 280.95 29.55
L 282.75 25.25
Q 284.6 21.5 285.35 19.55
L 285.95 22.2
Q 286.35 24.05 286.45 24.85 286.6435546875 26.398046875 286.75 29.45 286.721875 29.4966796875 286.7 29.55 286.25 30.8 286.25 31.25 286.3 31.7 286.6 32.05 286.95 32.45 287.4 32.4 288.1 32.35 288.6 31.2 289.2 29.9 290.55 26.35 291.75 23.25 292.65 21.5 292.75 21.95 292.65 23.4 292.35 26.45 292.7 29.25 292.85 30.4 292.8 30.7 292.7 31.2 292.75 31.45 292.85 31.9 293.2 32.05 293.55 32.15 293.85 31.75 294 31.55 294.1 31.05 294.25 30.05 294.5 26.55 294.55 25.45 295.05 19.8
L 295.25 17.6
Q 295.35 16.45 295 16 294.6 15.35 293.75 15.6 293.2 15.75 292.65 16.6 291.05 19 289.45 22.95 289.0603515625 23.8521484375 288.5 25.1 288.4681640625 22.3494140625 287.8 19.6
M 266.65 16.95
Q 269.75 16.4 272.75 17 274.35 17.4 275 18.05 275.55 18.6 275.8 19.55 276.85 23.1 274.35 27.1
L 273.4 28.4
Q 272.05 29.8 270 30.3 268.4 30.7 266.1 30.5 265.15 30.4 264.65 30.5 263.8 30.7 263.65 31.4 263.5 32.2 264.4 32.7 264.85 32.95 265.95 32.95 269.5 33.05 271.35 32.4 274.5 31.35 276.5 28.15 278.2 25.25 278.3 21.7 278.3 20.05 278 19.05 277.85 18.5 277.35 17.5 276.8 16.45 276.2 16 275.55 15.45 274.25 15 270.7 13.95 265.8 14.75 264.75 14.85 264.3 15.4 264 15.75 263.9 16.7
L 263.7 18.6
Q 263.55 21.2 263.9 25.45 264 26.95 264.5 27.6 264.8 28 265.15 27.85 265.4 27.75 265.4 27.25 265.45 22.65 266.1 17.6 266.2 17.2 266.3 17.1 266.4 17 266.65 16.95
M 259.7 16.3
Q 259.7 15.25 259.4 14.8 259.1 14.45 258.55 14.45 258.05 14.45 257.7 14.8 257.6 14.9 257.2 16 256.95 16.7 255.75 18.5 254.95 19.8 254.4 20.95 250.65 28.45 249.4 33.35 249.2 34.1 249.55 34.3 249.85 34.45 250.15 34.25
L 250.5 33.75
Q 251.45 32.1 252.6 29.55 252.7287109375 29.2677734375 252.85 29 253.1908203125 29.255859375 253.75 29.2 254.15 29.15 254.9 28.75
L 255.95 28.35
Q 256.6 28.1 256.8 27.65 257.15 27.05 256.75 26.55 256.55 26.35 255.9 26.25 254.85 26.25 254.05 26.45 254.025390625 26.45859375 254 26.45 254.3173828125 25.7689453125 254.55 25.25 256.2 21.8 257.6 19.3 257.5 23.6 257.65 27.15 257.75 29.35 257.9 30.45 257.95 31.45 258.3 32.8 258.4 33.3 258.65 33.65 258.9 33.9 259.35 33.95 259.75 33.95 260.05 33.65 260.55 33.15 260.2 31.75 259.7 29.45 259.6 25.55
L 259.7 16.3
M 243.85 34.45
Q 244.15 34.1 244 33.7 243.85 33.1 243 33.1 242.15 33.25 241.75 33.25 241.35 33.3 240.75 33.15 240.05 33.05 239.75 33.05 239.25 33.1 238.45 33.3 237.55 33.55 237.15 33.6
L 236.4 33.65
Q 235.9 33.75 235.85 34.1 235.6 34.7 236.35 35 236.7 35.15 237.45 35.05 239.2 34.85 241.2 35 242.65 35.1 243.2 34.9 243.6 34.8 243.85 34.45
M 230.65 15
Q 229.05 14.55 227.85 15.05 227.15 15.3 226.3 16.05 225.5 16.65 224.6 17.55 222.85 19.2 222.3 20.75 221.95 21.75 222.1 22.7 222.2 23.75 222.9 24.45 223.35 25.05 224.5 25.5 225.95 26.05 227.3 26.35 228.7 26.55 229.35 26.75 230.5 27.1 231 27.95 231.5 28.75 231.2 29.95 230.95 30.8 230.25 31.75 228.95 33.4 227.75 33.95 226.05 34.8 224.55 33.95 223.95 33.5 223.65 33.35 223.15 33 222.75 33.15 222.35 33.25 222.15 33.65 221.95 34.05 222.05 34.45 222.2 35.15 223 35.75 225 37.1 227.5 36.55 229.7 36.05 231.4 34.1 231.95 33.6 232.45 32.7
L 233.15 31.05
Q 233.7 29.65 233.65 28.75 233.6 27.55 232.4 26.2 231.5 25.2 230.7 24.8 230.05 24.45 229 24.3 227.75 24.15 227.15 24 226.05 23.75 225.25 23.35 224.75 23.15 224.55 22.85 224.15 22.25 224.55 21.3 225 20.3 226.65 18.75 228.4 17 229.7 16.95 230.05 16.95 230.85 17 231.55 16.9 231.75 16.45 231.95 15.95 231.5 15.5 231.25 15.2 230.65 15
M 205.45 30.35
Q 204.9 29.3 203.4 28 203.15 27.8 199.95 25.35 197.85 23.75 196.7 22.45 195.9 21.55 194.95 20.05 194.1 18.8 194.5 18.1 194.75 17.65 195.55 17.4 197.25 16.85 199 17.25
L 200.05 17.4
Q 200.65 17.3 200.8 16.85 200.9 16.45 200.5 15.95 199.4 14.8 196.9 14.8 194.95 14.7 193.65 15.45 192.65 16.1 192.2 17.3 191.7 18.5 192.05 19.65 192.25 20.45 192.85 21.3 195.5 25.4 199.35 28 200 28.45 201.3 29.35 202.4 30.2 202.95 31.05 203.4 31.55 203.3 32.15 203.3 32.55 202.9 33.05 202.4 33.7 201.15 34.75 199.8 35.85 198.65 36.2 197.1 36.7 195.85 36.05 195.35 35.75 195.1 35.65 194.7 35.4 194.35 35.45 193.85 35.5 193.55 36 193.3 36.5 193.45 37.05 193.7 37.9 194.9 38.45 197.4 39.6 200.3 38.25 202.5 37.3 204.7 34.8 205.4 34 205.7 33.35 206.25 32 205.45 30.35
M 209.25 19.7
L 208.05 18.1
Q 207.55 17.6 207.25 17.45 206.55 17.25 206.35 17.7 207.05 19.2 207.95 20.3
L 209.75 22.5 210.35 23.1
Q 211.85 24.55 213.6 26.9 213.7826171875 27.1921875 214 27.4
L 211.4 34.65
Q 211.1 35.8 211.4 36.35 211.65 36.65 212 36.75 212.4 36.85 212.75 36.65 213.35 36.35 213.7 34.9 214 33.65 215.05 30.85
L 216.9 25.85
Q 218.3 21.95 219.1 20.05 219.5 19.25 219.55 18.75 219.65 17.9 219.25 17.45 218.7 16.8 218 17.2 217.7 17.35 217.35 18.4 217.2 19.2 216.15 21.7 215.6 22.9 215.1 24.45
L 214.7 25.45
Q 214.00390625 24.540625 213.05 23.5
L 209.25 19.7
M 404.5 134.95
Q 401.45 135.15 399.95 135.65 397.75 136.4 395.95 138.15 394.2 139.85 393.25 142.1 392.766015625 143.2494140625 392.65 144.2 390.9955078125 143.965234375 388.6 144.2 383.75 144.65 381.45 147.1 380.6 147.95 379.9 149.35 378.25 152.2 378.25 154.8 378.25 155.0384765625 378.25 155.25 377.2154296875 155.58984375 375.85 156.5 375.0419921875 157.062109375 374.1 157.75 373.7013671875 157.3841796875 373.1 157.05 371.5 156.3 368.75 155.55 363.65625 154.3716796875 360.3 155.2 359.9630859375 154.6130859375 359.15 153.8 354.95 149.65 348.9 145.7 344.9 143.1 337.55 139 331.05 135.3 327.65 133.8 323.5 131.95 316.75 129.7 307.4 126.65 305.7 126.05 299.2 123.5 295.95 122.4 294.917578125 122.06484375 293.9 121.75 293.838671875 121.489453125 293.65 121.15 292.95 119.75 290.85 118 287.05 114.75 284.65 113.1 281.1 110.6 277.85 109.3 276.45 108.85 275.55 108.65 274.761328125 108.533203125 273.9 108.5 272.7255859375 102.5439453125 270.6 97.15 272.5341796875 93.7869140625 272.1 89.75
L 271.65 87.35
Q 270.55 82.8 267.95 81.05 266.6 80.1 264.8 79.9 263.1 79.7 261.4 80.15 260.934375 80.2763671875 260.45 80.45 258.966015625 78.7521484375 257.3 77.2 251.96328125 72.2103515625 245.8 69.35 248.215625 67.4037109375 251.4 66.25 253.5 65.5 253.9 65.3 255.25 64.6 255.75 63.55
L 252.6 63.5
Q 249.55 63.5 248.05 63.85 246.5 64.15 244.6 65.3 242.802734375 66.3607421875 241.55 67.7 238.22421875 66.65078125 235.5 66.8 235.1482421875 66.815625 234.8 66.85 232.448828125 66.09140625 229.9 66.65 227.7 67.1 224.6 69 222 70.6 220.95 71.6 218.9 73.5 217.45 76.65 216.5 78.7 215.35 82.6 213.8 87.75 213.15 90.8 212.15 95.35 212.05 99.15 211.95 101.95 212.75 103.65 213.25 104.7 214.2 105.4 215.25 106.15 216.35 106.1 216.05703125 105.056640625 215.9 103.9 216.0671875 103.434375 216.2 102.95 216.7353515625 105.1583984375 217.7 107.05 217.8265625 109.1119140625 218.9 110.4 219.5 111 219.9 111.05 220.7 111.15 221.2 110.15 221.35 109.85 221.45 108.5 221.7076171875 103.175 225.3 96.05 225.4134765625 96.7783203125 225.5 97.45 225.130078125 98.8388671875 224.8 100.2 224.1 103.3 223.95 104.85
L 223.8 107
Q 223.7 108.55 223.85 109.3 223.95 110 224.55 111.4 224.95 112.35 225.45 112.4 226.05 112.55 226.45 111.85 226.55 111.65 226.65 110.65 226.8 108.15 227.15 106.15
L 227.15 106.05
Q 228.3001953125 110.7060546875 229.95 115.55 230.762890625 117.9568359375 231.65 120.05 226.2609375 121.0189453125 222 124.4 220.65 125.5 218.85 127.4 217.65 128.7 213.7 133.35 212.35 135 211.85 136.1
L 211.25 137.6
Q 210.7 138.4 210.65 138.55 210.383203125 139.08359375 210.6 140.05 188.0650390625 135.45234375 166.35 114.8 163.5 112.05 162.5 110.15 162.32109375 109.81953125 162.15 109.55 163.36796875 107.82109375 164.45 105.9 166 103.1 166.65 101.05 167.35 99.1 167.65 96.65 168.2 91.5 166.4 88 165.4 85.95 163.65 84.6 161.75 83.2 159.65 83 158 82.85 156.45 83.45 156.2791015625 83.5087890625 156.1 83.55 156.13203125 83.5375 156.15 83.5 158.45 78.8 159.15 74.45 160.15 68.4 158.55 62.65 157.3 58 154.5 54.2 151.55 50.25 147.55 48.05 143.75 45.95 139.35 45.6 135.5865234375 45.30390625 132.05 46.3 131.576171875 43.8755859375 130.1 41.2 129.05 39.35 126.85 36.25 123.35 31.35 121.25 28.65 118 24.6 114.85 21.75 109.0583984375 16.434765625 102.85 14.3 102.2541015625 12.9806640625 100.75 12.35 99.45 11.8 97.75 11.8 96.8 11.7 96.15 12.05 95.80703125 12.2404296875 95.5 12.55 90.8013671875 11.6439453125 88.8 11.3 83 10.35 80.4 10.15 75.65 9.75 71.95 10.5 67.96640625 11.303125 64.35 13.45 63.4380859375 13.4904296875 62 13.85 58.85 14.75 57.9 15.35 56.8 16.1 55.2 18.2 54.05 19.9 53.7 20.75 53.45 21.35 53 23.2 52.75 24.05 52.75 24.75 52.7 25.3 52.9 26.3 53.45 28.8 53.5 28.95 53.9 30.25 54.25 30.85 54.6 31.45 55.55 32.5
L 57.7 35
Q 58.2 35.6 58.55 35.8 59.2806640625 36.205859375 60.05 35.85 61.5525390625 32.2962890625 61.8 31.95 65.55 26.95 70.2 22.3 71.2 21.3 71.35 20.65 71.55 19.75 70.75 18.5 69.91015625 17.078515625 68.75 15.9 69.514453125 15.5990234375 70.3 15.35 74.05 14.15 78.95 14.35 81.3859375 14.428515625 85.4 15 83.2734375 16.071484375 81.45 17.6 78.15 20.4 74.75 26.4 71.4 32.3 69.5 37.95 67.8 43.2 66.85 49.4 63.05 71.9 67.4 89.65 69.1 96.45 72 103.2 75.2 110.5 78.65 114.75 79.795703125 116.162109375 81.05 117.35 80.671484375 117.3810546875 80.25 117.4 75.4 117.55 74.75 117.5 73.41875 117.3837890625 72.1 116.95 71.8404296875 116.309375 71.25 115.35
L 67.75 109.4
Q 67.25 108.4 66 105.1 65.6 103.85 65.6 103.65
L 65.45 102.15
Q 65.3 101.65 64.6 100.95 64.1 100.35 63.7 100.4 63.65 101.25 62.65 102.8 62.35 103.55 62.2 104.45 61.95 105.95 61.95 107.2 61.8865234375 107.9818359375 61.9 108.85 57.6197265625 103.232421875 55.1 95.1 53.80703125 90.758984375 52.8 84.4
L 53.35 84.45
Q 54.5 84.6 54.95 84.6 55.85 84.55 56.35 84.1 57 83.45 56.9 82.4 56.9 82.25 56.45 80.65 55.85 78.55 55.85 74.2 55.85 71.15 56.1 69.65 56.25 68.7 57.3 65.75 58.6 62.25 58.4 60.3 58.2 59.05 57.6 58.5 57 57.95 55.75 57.95 54.75 58 52.95 58.6 51.7685546875 58.990625 50.7 59.4 50.7 58.3234375 50.7 57.3 50.75 47.3 52.55 39.1 53.38828125 35.2255859375 54.65 31.9
L 54.25 31.2
Q 53.15 29.2 52.9 28.1 52.75 27.15 52.75 26.15
L 52.75 26.1
Q 52.5978515625 26.401953125 52.45 26.7 47.65 36.2 46.9 52.15 46.670703125 56.7931640625 46.7 61.4 45.2734375 62.3517578125 44.3 63.4 41.65 66.35 40.4 72.5 40 74.3 40.05 75.3 40.1 77.15 41.1 78.9 42.1 80.6 43.7 81.7 44.9 82.55 46.4 83.1 47.530859375 83.6140625 48.7 83.9 49.3818359375 88.0685546875 50.3 92.2 52.45 101.8 55.65 107.15 58.1 111.25 62.75 115.8 63.026953125 116.07109375 63.3 116.3
L 63.85 118.45
Q 64.45 120.7 65.5 122.8 66.25 124.45 67.15 125.2 68.5 126.35 69.9 126 71.45 125.6 72.15 123.35 72.3041015625 122.7595703125 72.35 121.85 75.0314453125 122.396484375 78.3 121.9 80.62734375 121.5275390625 84.65 120.25 86.7154296875 121.6240234375 89.05 122.6 92.7890625 124.169921875 96.35 124.35 96.3474609375 124.9314453125 96.65 125.45 97.25 126.45 98.85 126.9 100.65 127.4 102.5 127.1 104.4 126.85 105.9 125.8 107.4 124.75 108.25 123.05 108.9798828125 121.6712890625 109.05 120.2 110.229296875 119.3365234375 111.4 118.3 113.1115234375 116.759765625 115.4 114.2 115.426171875 114.2236328125 115.45 114.25 115.95 114.85 117.65 115.6 120.9 116.9 123.7 116.95 125.6501953125 116.998828125 127.55 116.5 127.3560546875 117.470703125 127.8 118.7 128.85 121.45 132.05 123 134.6 124.15 138.1 124.05 144.70625 124.009375 150.8 120.4 150.83203125 120.5099609375 150.85 120.6 151.1 121.65 152.15 123.1 155.65 128.25 161.7 139.25 167.45 148.85 173.3 153.55 175.75 155.5 181.95 159.15 184.05 160.3 184.85 160.65 186.55 161.4 188 161.55 189.85 161.7 192.95 160.85 196.86796875 159.744921875 200.5 158.15 198.5408203125 162.441796875 197.55 167.75 196.4 173.65 196.35 181.7 196.25 192.6 198.55 199.2 200.4 204.5 205.25 211.35 208 215.2 213.45 222.85 212.7 217.55 208.1 209.3 202.9 200 201.75 195.95 200.5 191.5 200.3 184.45 199.8611328125 167.9177734375 204.35 156.3 205.9869140625 155.4923828125 207.55 154.55 210.75 152.6 211.9 150.9 213.2 149.05 212.3 147.8 211.85 147.2 210.95 147.15 210.15 147.05 209.45 147.45 209 147.65 207.1 149.45 205.3 151.25 202.1 152.65 198.35 154.15 196.5 154.9 193.5 156.15 192.55 156.5 190.25 157.2 188.4 157 186.5 156.8 183.4 155 177.45 151.7 174.15 148.7 170.9 145.8 167.8 141.3 165.95 138.6 162.7 132.85
L 155.75 120.5
Q 154.85 119 154.2 118.45 154.09140625 118.3673828125 153.95 118.3 156.780859375 116.1505859375 159.2 113.35 159.9162109375 114.2765625 161 115.25
L 167.25 121.05
Q 171.9 125.3 174.85 127.6 176.7 129 181.7 132.25 190.9 138 197 140.35 205.9 143.95 213.9 143.3 214.8 143.2 215.45 142.8 216.15 142.35 216 141.65 215.75 140.9 214.3 140.7 214.2220703125 140.688671875 214.15 140.65 214.8359375 139.5220703125 215.95 137.1 216.8 135.7 218.5 133.7 221.2 130.5 222.9 128.85 225.45 126.35 228.05 125 229.1 124.45 231.3 123.5 232.114453125 123.0927734375 232.75 122.65 234.1427734375 125.603125 235.65 127.9 239.8 134.2 245.6 136.95 246.25 137.25 246.9 137.15 247.6 137.05 247.55 136.45 247.55 136.15 247.05 135.65 241.95 131.15 238.25 124 235.35 118.35 232.85 110.15 231.05 104.15 230.15 99.2 229.9203125 97.94609375 229.7 96.7 230.19921875 95.3564453125 230.75 93.85 232.4 89.05 233.8 86.6
L 234.6 85.3
Q 235.45 84.1 235.55 83.8 235.7712890625 83.26875 235.65 82.7 236.7251953125 82.0087890625 237.65 81.8 238.35 81.6 239.8 81.3 240.4609375 81.0712890625 240.8 80.65 240.8845703125 80.690625 240.95 80.7 241.25 80.75 241.45 80.55 241.6 80.45 241.7 79.8 241.730859375 78.32109375 241.7 77.4 242.016015625 77.4216796875 242.3 77.3 243.35 76.95 243.45 75.2 243.286328125 73.808203125 243.3 73 244.3244140625 73.4583984375 245.35 74 251.737890625 77.3107421875 256.75 82.8 256.5115234375 83.0646484375 256.25 83.35 254.1 85.65 253.4 88.65 252.9150390625 90.88828125 253.25 93.15 252.860546875 92.7408203125 252.45 92.45 251.45 91.75 250 91.35 249.3 91.15 247.3 90.75 244.55 90.25 243.4 90.45 241.35 90.75 239.65 92.7 238.6 93.85 237.25 96.45 236.55 97.9 236.4 98.35 236.1 99.35 236 100.9 235.55 105.6 236.45 108.85 237.35 112.05 239.65 114.55 241.6 116.55 243.55 116.95 244.75 117.15 247.6 116.5 250.15 115.9 250.7 115.65 252.7 114.7 254.05 112.55 255.1 110.75 255.7 108.25 256.25 106.1 256.5 103.6 256.6517578125 101.627734375 256.5 100.05 257.7 101.3 258.7 101.8 261.2 103.05 265.4 101.6 266.62421875 101.162890625 267.25 100.8 267.634765625 101.8876953125 267.95 103 268.87421875 106.3548828125 269.75 111.65 269.612109375 111.853515625 269.5 112.1 269.4 112.3 268.85 114.05 267.9 117.65 263.8 121.85 262.5 123.25 261.55 123.8 260.8 124.3 258.85 125.05 255.1 126.4 253.25 126.35 252.45 126.35 252.5 125.85 251.95 126.1 252.15 126.75 252.3 127.15 252.8 127.5
L 254 128
Q 254.55 128.3 255.65 129.05 257 129.75 259.1 129.4 263.5 128.6 267.95 123.65 269.9138671875 121.45234375 270.9 119.7 271.073046875 121.177734375 271.1 122.2 271.15 125.1 270.4 127.3 269.35 130.45 265.6 134.1 259.3 140.1 253.35 140.5 253.2 141.85 254.35 142.95 255.45 143.95 256.9 144.05 258.669921875 144.134375 261.15 142.8 261.4451171875 143.1833984375 261.8 143.6 262.55 144.5 263.35 146 263.85 146.85 264.75 148.55 266.5 151.7 268.55 152.85 269.3 153.3 269.75 152.95 270.25 152.65 270.05 151.6 269.15 147.25 264.95 140.95 264.8392578125 140.7927734375 264.7 140.65 273.37265625 134.7044921875 274.95 127.3 275.5 124.95 275.3 120.65 275.087109375 115.66796875 274.35 111 276.30078125 111.7998046875 278.75 113.4 281.65 115.25 284.8 117.6 286.978515625 119.184375 288.55 120.65 287.1423828125 120.479296875 285.85 120.45 284.75 120.35 284.4 120.9 283.9 121.6 284.7 122.4 285.1 122.75 286.2 123.05 291.4 124.45 296.05 126.55 298.2 127.5 302.45 129.45 304.75 130.4 308.25 131.45 310.2 132.05 314.1 133.25 336.45 140.2 356.65 156.8 356.7529296875 156.877734375 356.85 156.95 354.6017578125 158.7966796875 352.75 162.5
L 352.3 163.4
Q 351.8962890625 163.06328125 351.25 162.75 348.85 161.6 344.85 160.95 338.4 159.85 338.2 159.8 335.7 159.25 330.8 157.45
L 322.75 154.35
Q 315.15 151.35 310.5 148.9 304 145.5 299.5 141.5 298.85 140.95 298.5 140.9 298.2 140.85 297.9 141 297.6 141.2 297.6 141.5 297.65 141.75 297.95 142.05 301.2 145.9 305.3 148.65 305.6 148.85 310 151.55
L 315.95 154.9
Q 316.0201171875 154.9701171875 316.1 155.05 320.35 159.3 323.7 167.55 327.65 177.1 329.9 188.65 331.8 198.35 332.7 210.55 333.6 223.75 332.7 232.6 332.05 238.6 330.45 242.2 335.55 238.1 336.7 228 337.6 219.95 336.4 206.85 335.1 193.1 332.8 183.1 329.85 170.45 324.65 160.7 324.1431640625 159.7681640625 323.6 158.95 323.95078125 159.0802734375 324.25 159.2 326.3 160.05 330.55 161.55 331.4 161.9 333.05 162.65 334.55 163.3 335.6 163.65 337.35 164.2 341.45 164.65 345.3 165.1 347.25 165.8 347.85 166.05 349 166.5 350 166.85 350.75 166.8 350.784765625 166.7982421875 350.8 166.8 350.60234375 167.412109375 350.55 167.7 350.4 168.45 350.35 169.95 350.25 170.8 349.95 172.5 349.9 173.95 350.65 175.25 351.45 176.55 352.75 177.25 353 177.4 355.6 178.2 358.1 179 358.5 179.05 358.7841796875 179.1068359375 359.05 179.1
L 359.05 179.15
Q 358.85 181 358.85 181.8 358.9 183.3 359.45 184.3 360 185.35 361.5 186.6 362.4 187.3 362.95 187.45 363.3537109375 187.5509765625 363.7 187.5 363.7203125 187.60625 363.75 187.7 364.1849609375 189.1353515625 364.95 190.55 363.6099609375 191.632421875 362.1 193.5 360.1 195.9 356.2 200.8 348.35 210.55 344.6 216.6 344 217.65 343.3 217.7 343.35 218 343.9 218.1 345.4 218.35 346.65 217.75 347.95 217.2 349.6 215.35 352.4 212.35 356.4 207.1 361.5 200.45 362.95 198.65
L 365.5 195.7
Q 366.35 194.7 367.2 194.1 367.219921875 194.080078125 367.35 194 367.4576171875 194.0943359375 367.55 194.2 368.85 195.7 369.85 196.4 371.75 197.75 374.6 198.25 379.1 199 383.4 197.4 386.2 196.4 387.85 194.6 389.85 192.35 389.65 189.75 389.55 188.2 387.9 185.3 386.9908203125 183.6708984375 386.2 182.65 388.2513671875 182.882421875 390.45 182.2 392.9 181.4 395.3 179.4 397.6 177.6 398.8 175.4 399.3357421875 174.4892578125 399.65 173.55 400.83359375 174.194921875 402.75 173.9 406.8 173.25 409.15 170.65 412 167.75 411.6 164.05 411.580078125 163.8611328125 411.55 163.65 412.9427734375 163.701171875 414.7 162.8 416.1 162.1 416.9 161.3 417.25 161 418.2 159.8 419.8 157.6 420.4 156.45 421.6 154.2 422.5 150.45 422.9 148.75 422.8 147.8 422.55 146.45 422.45 145.8
L 422.1 143.55
Q 421.3 140.5 417.4 138.65 417.0494140625 138.46875 416.7 138.3 416.507421875 137.6400390625 415.9 137.1 415.25 136.45 414.05 136 410.5 134.6 404.5 134.95
M 380 181.75
Q 380.45 181.95 381.05 182.65 383.35 185.3 384.95 188.45 385.5 189.5 385.45 190.25 385.4 191.2 384.25 192.15 382.65 193.4 379.95 193.9 375.1 194.85 372.3 192.95 370.95 192.1 369.3 189.65 368.1 187.95 367.75 186.8 367.25 184.9 368.15 183.6 369.2 182.05 372.8 181.85
L 378.05 181.55
Q 379.4 181.45 380 181.75
M 395.7 169.35
Q 396.15 170.85 395.45 172.6 394.85 174.1 393.55 175.4 390.2 178.65 385.65 179.05 384.65 179.15 384.15 179.3 383.638671875 179.459765625 383.35 179.8 381.6208984375 178.4783203125 380.55 178.05 379.6330078125 177.7166015625 378.25 177.6 378.06953125 177.2154296875 377.75 176.65 376.05 173.8 375.95 170.35 375.95 169.05 376.2 168.25 376.4 167.4 377.1 166.2 378.75 163.3 380.8 162.8 381.85 162.5 383.95 162.9 387.3 163.5 389.2 164.15 392 165.1 393.8 166.65 395.3 168 395.7 169.35
M 389.25 148.1
Q 391.5 147.95 393.25 148.4 395.3 149 398.25 151.2 401.95 153.85 403.55 155.95 405.05 157.85 406.85 162.35 407.8 164.6 407.35 165.85 407.15 166.55 406.15 167.55 404.8 169 403.65 169.35 403.1 169.5 402.3 169.55 401.35 169.55 400.9 169.55 400.3580078125 169.580078125 399.9 169.7 399.6166015625 167.8216796875 398.35 165.9 397.6 164.6 396.35 163.35 394.6 161.8 391.2 160.5 388.4 159.45 385 158.8 383.9828125 158.6056640625 383.05 158.5 381.8583984375 155.8640625 382.45 153.35 383.1 150.5 385.45 149.15 386.9 148.3 389.25 148.1
M 397.1 143.15
Q 398.1 141.45 398.9 140.7 400.3 139.55 403.05 139.15 406.95 138.6 410.45 139.1 411.5380859375 139.2740234375 412.25 139.55 412.9787109375 140.76875 414.1 141.5 414.9 142 416.65 142.8 418.15 143.75 418.4 144.95 418.55 145.55 418.45 146.85
L 418.55 147.9
Q 418.65 149.55 417.7 152.15 417.1 153.85 416.65 154.6 416.5 154.9 415.2 156.85 413.4 159.2 411.9 159.2 411.65 159.2 410.95 159.05 410.35 158.95 410 159 409.965625 159.00390625 409.9 159 408.1435546875 155.0697265625 405.7 152.4 404 150.5 400.85 148.2 398.3798828125 146.3939453125 396.3 145.4 396.3125 144.4623046875 397.1 143.15
M 362.85 176.75
Q 363.05 176.2 363.85 174.7
L 365.85 171
Q 366.8 169.2 367.5 168.15 369.2 165.65 372.05 163.35 373.85 161.85 377.45 159.45
L 379.15 158.35
Q 379.25703125 158.541796875 379.35 158.7 378.6330078125 158.92734375 378 159.25 376.15 160.2 374.05 163.15 372.65 165.25 372.3 166.45 371.95 167.8 371.95 169.45 371.8615234375 174.22734375 373.35 177.6
L 373.1 177.6
Q 369.3 177.7 367.7 178.6 366.7 179.15 365.35 180.6 364.25 181.85 363.95 182.35 363.5583984375 183.06796875 363.4 183.85 363.1046875 183.6291015625 362.9 183.45 362.25 182.85 362.05 182.25 361.85 181.65 362.05 180.1 362.45 177.8 362.85 176.75
M 359.15 160.6
Q 361.15 158.85 364.05 159 365.15 159.1 367.4 159.75 369.25 160.1 369.7 160.3 370.0130859375 160.404296875 370.45 160.55 370.394921875 160.6142578125 370.35 160.65 368.15 162.45 367.2 163.5 365.55 165.3 362.85 169.95
L 361.3 172.65
Q 360.1591796875 174.5845703125 359.75 175.8 359.2802734375 175.6189453125 358.7 175.2 357.65 174.45 357.2 174.25 355.6 173.9 354.9 173.55 354.1 173.2 354.05 172.55 354.05 172.4 354.3 171.6 354.35 170.35 354.4 169.7 354.45 168.8 355.1 167.4 355.9 165.6 356.55 164.3 357.9 161.7 359.15 160.6
M 243.25 95.45
Q 244.75 94.6 247.4 95.15 250.15 95.8 251.25 97.4 251.85 98.35 252.1 100.05 252.65 104.35 251.05 108.35 250.4 110.1 249.35 110.9 248.5 111.65 246.4 112.05 244.5 112.45 243.5 112 242.5640625 111.5931640625 241.8 110.35 242.1126953125 110.274609375 242.45 110.15 245.15 109.05 246.35 106.3 247.45 103.7 246.55 100.8 245.75 98.55 244.15 97.55 243.25 97 242.2 96.9 242.0248046875 96.8919921875 241.85 96.9 242.473046875 95.9228515625 243.25 95.45
M 258.75 95.65
Q 260.053515625 95.61015625 261.25 94.95 262.7 94.15 263.5 92.75 265.15 89.95 264 86.6 263.5498046875 85.1265625 262.7 84.4 264.9615234375 83.77421875 266.1 85.15 266.45 85.65 266.9 87.35 266.95 87.5 267.4 88.65 267.7 89.4 267.8 89.95 268.05 91.1 267.2 93.7 266.6 95.6 265.8 96.35 265.15 97 263.25 97.6 261.5 98.05 260.8 97.8 260 97.5 259.05 96.15 258.89453125 95.8998046875 258.75 95.65
M 102.9 123.45
Q 102.61875 123.553125 102.35 123.6 102.6470703125 123.5296875 102.95 123.4 102.9265625 123.4404296875 102.9 123.45
M 99.6 23.45
Q 100.25 23.8 100.3 24.1 99.95 24.25 99.1 24.9 98.35 25.4 97.85 25.55 97.45 25.65 96.65 25.65 96.05 25.55 96 25.5 95.85 25.45 95.5 25.1 94.15 23.4 93.55 21.75 96.85 22.4 99.6 23.45
M 116.45 38.95
Q 116.75 39.45 117.65 40.2 118 40.7 118.3 41.55
L 119.45 45.2
Q 119.9 46.25 119.4 46.8 119.25 47 118.55 47.2 116.8 47.6 115.9 47.3 114.65 46.85 113.6 44.5 113.1 43.2 113.05 42.45 113.05 41.15 114.25 39.05
L 114.85 38.3
Q 115.3 37.95 115.75 38.1 115.95 38.2 116.45 38.95
M 117.3 89.85
Q 117.7 88.8 118.7 87.8 121.25 85.35 124.3 85.55
L 118.95 95.4
Q 117.7 94.35 117.25 92.75 116.85 91.15 117.3 89.85
M 125.15 40.9
Q 126.95 43.95 127.6 46.75 127.7650390625 47.4365234375 127.95 48 124.5673828125 49.9017578125 122.55 53 121.05 55.25 120.65 57.9 120.25 60.65 121.1 63.1 122.35 66.45 125.55 68.85 128.15 70.85 131.45 71.65 131.77890625 71.734765625 132.1 71.8 132.036328125 72.6685546875 132.2 74.1 132.75 78.05 130.85 83.6 128.3 91.05 122.7 98.8 118.7 104.3 111.35 112.15 108.9 114.8 107.35 116.15 104.95 118.15 102.65 119.1 98.5 120.85 93.55 119.7 92.7119140625 119.50859375 91.9 119.25 92.394921875 119.034765625 92.7 118.8 93.5 118.15 93.9 117.9 94.2537109375 117.6837890625 94.5 117.5 94.6701171875 117.6357421875 94.85 117.7 95.35 117.9 95.8 117.45 96.2 117.05 96.3 116.45 96.35 116.1 96.35 115.35 96.35 114.6 96.45 114.25 96.8 113.1 98.45 112.25 101.8 110.35 104.4 111.2 104.65 111.95 103.4 112.85
L 99.15 115.95
Q 98.6 116.3 98.55 116.7 98.45 117.25 99.15 117.55 99.8 117.75 100.95 117.15 102.85 116.15 104.65 115 106.6 113.8 107 112.6 107.35 111.6 106.85 110.55 106.7263671875 110.275390625 106.55 110 108.11953125 109.5302734375 109.55 106.9 112.924609375 100.662890625 115.1 93.8 115.4958984375 94.823828125 116.35 96.2 117.25 97.65 118 98.05 117.9 99.05 118.45 99.3 119.1 99.6 119.7 98.3 121.2 94.7 123.1 91.85 123.75 90.85 125.1 88.75 126.15 86.95 126.45 85.4 126.65 84.3 126.25 83.8 125.9 83.35 125.25 83.2 123.6 82.75 121.3 83.5 118.83359375 84.3935546875 117.2 86 117.399609375 85.255078125 117.55 84.5 119.85 72.75 118.85 60.65 118.358984375 54.227734375 116.6 49.9 117.2953125 49.9216796875 118.05 49.8 120.4 49.5 121.3 48.2 122.35 46.65 121.3 43.3 120.5 40.8 119.85 39.45 118.85 37.4 117.45 36.2 116.45 35.3 115.55 35.3 114.85 35.35 114.05 35.9 112.761328125 36.827734375 112 38.1 110.666796875 34.2056640625 107 29.55 104.4 26.35 102.3 25.2 102.190234375 25.1451171875 102.05 25.1
L 102.25 24.95
Q 102.95 24.35 103.05 23.85 103.2 23.15 102.5 22.35 101.85 21.6 100.2 20.95 96.25 19.35 93.35 19.15 92.25 19.15 91.8 19.45 91.2 19.95 91.1 20.95 90.95 22.1 91.55 23.45 91.85 24.15 92.8 25.75 94 27.45 94.85 27.8 95.6 28.1 96.9 28 98.45 27.9 98.95 27.65 99.5 27.45 100.6 26.45
L 100.95 26.15
Q 100.9693359375 26.1693359375 101 26.2 107.15 31.95 110 40 110.3 40.95 110.65 41.35 110.7671875 41.4671875 110.85 41.55 110.5880859375 44.0958984375 111.95 46.6 112.9728515625 48.6029296875 114.65 49.4 115.45 51.242578125 116 53.4 116.45 55.4 116.75 58.65 117.7 70.25 115.3 81.8 112.95 93.35 107.5 103.65 105.6 107.25 105.15 108.2 105.01484375 108.4837890625 104.95 108.7 103.331640625 108.0572265625 101.15 108.45 98.25 109 95.9 110.85 94.7 111.85 94.3 112.75 93.9619140625 113.5388671875 94 115 93.79453125 115.0591796875 93.55 115.1
L 91.9 115.55
Q 90.8 116.15 90.5 116.25 90.4 116.3 89.65 116.5 89.15 116.6 88.9 116.8 88.343359375 117.0783203125 88.15 117.55 86.611328125 116.685546875 85.2 115.5 79.35 110.5 75.25 99.85 69.6 85.05 69.35 68.9 69.1 52.7 74.3 37.75 76.35 31.95 78.7 27.9 82 22.25 86.2 19.7 90.6 17.1 96.3 17.55 101.6 17.95 106.45 20.75 110.55 23.15 114.65 27.4 117.45 30.35 121.45 35.6 123.95 38.85 125.15 40.9
M 69.55 122.9
Q 69.45 123.35 69.15 123.35 68.85 123.35 68.65 123.05 66.9 120.75 65.85 116.05 64.85 111.6 64.4 107.35 66.8 112.75 68.4 115.5 69.4 117.25 69.65 118 70.55 120.45 69.55 122.9
M 47.3 66.15
Q 48.55 64.8 50.6 63.85 51.85 63.25 54.5 62.45
L 53.35 69.9
Q 52.85 73.1 52.8 74.6 52.65 77.55 53.25 80.4 50.85 80.8 47.9 79.5 45.4 78.4 44.6 76.7 43.65 74.85 44.8 71.15 45.8 67.8 47.3 66.15
M 52.5 84.35
Q 52.0037109375 84.45 51.45 84.45 50.272265625 84.45 49.3 84.05 49.56484375 84.109765625 49.8 84.15
L 52.5 84.35
M 62.75 17.5
Q 63.8 17.25 64.6 17.45 65.35 17.7 66.2 18.65 67.45 20.1 67.65 20.25 63.1 24.6 59.9 30.2 59.6 30.7 59.3 30.7 59.1 30.75 58.75 30.4 57.3 29 56.8 26.9 56.3 24.8 56.95 22.8 57.55 20.85 59.15 19.4 60.7 18 62.75 17.5
M 162.45 88.4
Q 164.55 90.75 164.3 94.5 164.1 97.15 162.5 100.75 159.4 107.65 154.4 112.45 148.75 117.8 142.1 119.35 137.4 120.4 134.1 119.2 132.6 118.6 132.1 117.8 131.9 117.5 131.45 116.2 131.2283203125 115.5349609375 130.9 115.15 133.0671875 113.980078125 135.15 112.05 139.65 108 141.85 102.45 141.8 102 141.15 102.1 140.85 102.2 140.45 102.7 138.25 105.5 135.4 107.95
L 133.6 109.4
Q 131 111.3 128.7 112.1 124.1 113.65 119.85 111.8 119.05 111.45 118.65 111.3 118.35234375 111.180859375 118.05 111.1 118.63046875 110.4439453125 119.2 109.75 123.6 104.4 125.65 101.7 129.05 97.1 131.3 93.1 137 82.65 136.45 73.4 136.4130859375 72.715625 136.3 72.15 137.1587890625 72.1294921875 138 72 139.4 71.8 140.05 71.3 141.15 70.45 140.85 69.4 140.5 67.95 137.8 67.95 135.7 68 134.95 68 133.4 67.95 132.2 67.6 130.6 67.15 128.35 65.55 126.2 63.95 125.4 62.55 124.6 61.15 124.65 59.4 124.7 57.7 125.5 56.2 126.85 53.55 130.15 51.65 133.7 49.75 137.9 49.75 142.1 49.75 145.6 51.7 149.05 53.6 151.45 57.1 153.8 60.45 154.75 64.5 155.95 69.5 155.1 74 154.65 76.6 152.35 82.1 147.85 92.9 145.15 97.8 146.35 97.6 147.65 96.4 149.2 94.9 151.3 91.85 152.8603515625 89.484375 154.05 87.35 154.38046875 87.4638671875 154.7 87.4 155.1 87.35 155.65 87.1 155.95 87 156.55 86.7 158 86.1 159.7 86.65 161.35 87.15 162.45 88.4
M 226.65 72.35
Q 226.5029296875 72.709765625 226.35 73.05 228.925390625 71.99609375 234.85 71.25 236.5177734375 72.06640625 237.75 73.85 238.90390625 75.465625 239.55 77.8 239.140625 77.7 238.6 77.7 234.95 77.6 230.95 81.3 230.03515625 82.1466796875 224.75 89 223.3271484375 91.223828125 221.95 93.85 219.908203125 97.8314453125 218.8 101.15 218.38203125 96.9822265625 219.25 93.8 219.6 92.6 219.55 92.2 219.55 91.2 218.75 90.9 218.05 90.6 217.35 91.3 217.214453125 91.435546875 217.1 91.6 217.9451171875 87.8201171875 218.8 84.7 220.65 77.65 223.65 74.65 224.941015625 73.358984375 226.65 72.35
M 225.25 77.95
Q 225.604296875 76.9291015625 225.45 76.75 225.39765625 77.0947265625 225.35 77.45 225.3146484375 77.7013671875 225.25 77.95
M 47.95 72.85
Q 48.15 72 47.9 71.5 47.6591796875 71.162890625 47.15 70.9 47.30390625 72.9833984375 47.5 75 47.5544921875 74.8271484375 47.6 74.6
L 47.95 72.85
M 89.95 97.4
Q 88.45 97.35 86.55 98.25 84.35 99.4 83.25 99.85 82.2 100.35 80.95 100.65 79.6 101 78.65 100.7 78.35 100.6 78.15 100.65 77.8 100.8 77.95 101.2 78.05 101.45 78.4 101.65 79.55 102.25 81.5 101.75 83.8 101.15 87.65 98.75
L 89.95 97.4
M 91.05 89.95
Q 89.15 90.7 84.6 93.95 80.7 96.75 77.95 97.35 77.4 97.45 77.2 97.65 76.75 98 77 98.35 77.25 98.65 77.8 98.55 80.1 98.2 82.65 96.8 84.2 95.9 87 93.85 90.1 91.5 91.05 89.95
M 87.9 91
Q 88.2 90.7 88.2 90.45 88.2 90 87.65 89.9 87.4 89.85 86.8 90.05 84.3 90.9 81.55 90.6 78.85 90.3 76.55 88.95 76.15 88.65 75.7 88.55 75.15 88.45 75 88.95 76.95 90.8 79.65 91.65 82.35 92.5 85.05 92.1 86.9 91.85 87.9 91
M 109.45 91.6
L 108.15 93.05
Q 104.25 97.6 101.7 99.7
L 94.15 104.9
Q 92.4 106.05 87.7 108.4 86.2 109.15 85.45 109.25 84.8 109.35 84.75 109.7 86.1 110.05 87.75 109.6 88.85 109.3 90.65 108.5 94.641796875 106.71640625 96.95 105.35 96.06484375 106.6634765625 95.25 108.05 94.2 109.6 93.95 109.85 93.35 110.45 93.25 110.6 92.9 111.15 93.2 111.55 93.55 112.05 94.15 111.75 94.55 111.55 94.95 111 95.35 110.5 98.05 106.85 99.9 104.3 101.3 102.85 102.787109375 101.2318359375 103.1 100.85 104.006640625 100.08125 104.95 99.2 106.15 98.15 107 97.1 108.9 94.85 109.45 91.6
M 98 72.1
Q 98.45 70.75 98.95 67.85 99.25 66.55 99.1 65.7 98.95 64 97.45 63 97.35 63.05 97.25 63.45
L 97.2 65.1
Q 97.1 67.2 96.95 68.3 96.75 69.7 96.2 71.25 95.65 72.95 94.3 75.3
L 92.3 78.25 90.9 79.65
Q 90.2 80.3 88.15 82.55 86.5 84.35 85.3 85.25 84.75 85.6 84.5 86 84.2 86.7 84.7 87 86.25 86.55 88.5 84.4
L 92.15 81.05
Q 93.25 80.05 93.75 79.5 94.7 78.4 95.75 76.6 97.45 73.7 98 72.1
M 102.9 67.7
Q 103.1 66.5 103.1 65.85 103.1 65.7515625 103.1 65.65 103.42734375 66.291796875 103.9 67.3 104.6 68.75 105.1 69.5 105.9 70.8 106 71.15
L 106.35 72.25
Q 106.45 72.45 107.05 73.5 107.45 74.2 107.5 74.75 107.85 74.8 108.1 74.4 108.3 74.05 108.2 73.65 108.15 73.35 107.95 72.95 107.7 72.45 107.65 72.25 107.5 71.3 107.4 70.85 107.3 70.4 106.6 69 106.2 68.2 105.4 66.1 104.7 64.25 104.15 63.3 103.4 62.05 101.8 60.35 96.7 54.8 90.25 50.7
L 90.05 50.85
Q 90.2 51.55 90.8 52.35 92.3 54.4 97 58.55 100.866015625 62.043359375 102.5 64.65 101.8708984375 64.4466796875 101.4 65.2 101.25 65.45 101.15 66.55 101 71.3 99.7 75.95 99.4 76.8 99.9 77 100.0525390625 76.9564453125 100.2 76.85
L 99.9 77.5
Q 97.55 82.45 96.4 85.5 95.5 87.85 94.15 92.1 93.45 94.1 93.05 94.9 92.35 96.4 91.3 97.25 90.45 98 90.7 98.45 91.9 98.4 92.85 97.35 94 96.3 95 94.05 95.35 93.35 96.55 90.2
L 97.75 87.1
Q 98.65 84.9 100.65 80.5
L 102.95 75.45
Q 103.35 74.55 103.4 74.05 103.5 73.25 103.05 72.65 102.75 72.35 102.45 72.45 102.25 72.5 102 72.95
L 101.75 73.45
Q 102.41484375 71.128125 102.9 67.7
M 105.9 72.05
Q 105.85 71.95 105.75 71.85 105.6 71.8 105.55 71.9 105.65 72.5 105 74.2 104.9 74.45 104.05 77.55 103.3 80.6 101.45 84.65 99.05 90.1 97.25 93.8 95.95 96.35 95.2 97.65 93.9 99.7 92.5 101.05 91.5 102.05 90.7 102.15
L 89.85 102.3
Q 89.35 102.45 89.3 102.85 89.25 103.2 89.7 103.4 90.05 103.6 90.5 103.55 92.15 103.35 93.9 101.7 95.85 99.9 98.05 96 99.8 92.8 103.3 84.8
L 104.45 82.15
Q 105.1 80.65 105.4 79.65 105.8 78.45 106.1 75.95 106.5 73.35 105.9 72.05
M 86 42.85
Q 85.6 42.2 84.8 42.6 84.35 42.8 83.85 43.45 82.4583984375 45.267578125 81.1 48.3 80.7119140625 48.437109375 80.35 48.65
L 79.1 49.3
Q 78.3 49.6 77.95 49.8 77.3 50.15 77.05 50.6 77.7 51.05 78.95 50.55
L 80.4 49.9
Q 79.726171875 51.6001953125 79.05 53.6 76.75 60.3 76.15 62.35 74.25 69.05 75.1 73.15 75.2 73.55 75.35 73.75 75.65 74.05 75.9 73.85
L 76.3 70.75
Q 76.75 66.1 77.5 63.4 77.9 61.65 78.65 59.7
L 81.35 51.6
Q 81.9142578125 49.9072265625 82.3 49.05 82.961328125 48.665234375 83.5 48.8 83.6 48.3 83.05 48.05 82.9236328125 47.9958984375 82.75 47.95 84.1083984375 45.042578125 86 42.85
M 82.2 34.3
Q 82.2 33.85 81.85 33.85 81.2 33.8 80.65 34.4 80.4 34.65 79.95 35.55
L 78 39.5
Q 76.8 42 76.3 43.25
L 75.75 44.5
Q 75.5 45.05 75 46.05
L 74.65 47.65
Q 74.5 48.1 74.1 49
L 73.9 50.45
Q 73.85 50.85 73.7 51.7 73.8 52.55 74.3 52.75
L 75 51.25
Q 75.65 48.95 76.05 47.8 76.5 46.4 77.45 44.25 78.75 41.4 79 40.7 79.16328125 40.281640625 79.3 39.9 79.381640625 40.0552734375 79.5 40.2 79.95 40.8 80.6 40.9 80.45 40.75 80.6 40.6 80.8 40.45 81.05 40.4 86.8 39.8 92.4 41.55 92.8 41.3 92.35 40.75 91.8 39.9 90.25 39.4 85.95 37.85 81.2 38.15 80.384765625 38.2025390625 79.9 38.45 80.097265625 37.989453125 80.25 37.65 81.05 35.9 81.9 34.8 82.2 34.5 82.2 34.3
M 92.2 34.55
Q 92.9 35.1 94.1 36.5 94.8 37.05 94.9 37.25 95.1 37.5 95.45 37.95 95.65 38.1 96.15 38.25 96.5 38.45 96.95 39.1 97.2 39.3 97.55 39.25 97.9 39.15 98.1 38.9 97.8 38.75 97.5 38.3 97.1 37.65 97 37.55
L 96.25 36.85 95.85 36.15 94.45 34.15
Q 93.6 33.05 93.3 32.75 92.55 32 91.45 31.3 90.7 30.75 90.1 30.5 88.45 29.8 84.75 30.3
L 82.2 30.65
Q 81.75 30.65 81.35 30.85 80.9 31.1 80.75 31.65 80.6 32.2 80.9 32.65 81.35 33.25 82.15 33.25 82.7 33.3 83.6 33.1 85.3 32.75 87.1 32.65 88 32.55 88.7 32.7 89.75 32.9 91.3 33.9
L 92.2 34.55
M 99.7 42.95
Q 99.2 42.05 98.85 41.75 98.1 41.1 97.45 41.65 97.05 42 97.2 42.7 97.35 43.2 97.75 43.7 98.3 44.55 99.6 46.15 99.85 46.45 101.25 48.15
L 104.3 51.8
Q 104.8 52.45 105.3 52.9 105.85 53.35 105.95 53.55
L 106.25 54.3
Q 106.35 54.55 106.95 55.4 107.25 55.75 107.7 56.5
L 109.65 59.55
Q 109.85 59.85 110.05 59.95 110.35 60.15 110.55 59.95 110.85 59.7 110.5 59.1
L 107.35 53.1
Q 106.85 52.35 106.6 51.95
L 106.25 51.5
Q 103.981640625 45.5044921875 102.35 40.05 101.8 38.3 100.75 38.3 102.05 43.95 104.4 48.9 104.535546875 49.21171875 104.65 49.5
L 101.25 45.15
Q 100.25 44.1 99.7 42.95
M 90.95 57.75
Q 89.95 54.6 88.05 52.8 86.75 51.6 84.95 50.8 83.8 50.35 83.1 50.5 82.65 50.6 82.3 51 82 51.4 82.1 51.85 82.25 52.45 83.65 53 86.9 54.2 88.4 57.35
L 90.25 64.05 92.15 73.85
Q 92.35 74.55 92.15 75.05 91.9 75.75 92.2 75.8 92.7 75.85 93 75.35 93.05 75.25 93.2 74.4
L 92.1 63.4
Q 91.65 59.85 90.95 57.75
M 115.8 153.9
Q 112.9 154.55 111.45 154.85 108.85 155.45 107.15 156.1 103.95 157.55 102.4 158.25 99.55 159.5 97.45 159.7 94.8 159.65 93.5 159.8 92.3 159.95 91.25 160.4 91.95 160.75 93.45 161.85 94.8 162.85 95.65 163.2 98.05 164.2 101.35 163 102.35 162.65 104.05 161.8 105.9 160.9 106.7 160.6 108.65 159.8 114.65 158.45 119.65 157.3 122.25 155.7 123.55 154.85 124.25 153.95 124.75 153.35 125.45 151.95 125.85 150.95 125.8 150.45 125.7 149.4 124.85 149.4 124.5 149.35 123.7 150.05 121.15 152.5 115.8 153.9
M 141.05 -2.25
Q 141.45 -1.65 142.95 -0.7
L 147.55 2.05
Q 151.35 4.4 152.75 5.95 153.85 7.15 155.15 9.4
L 157.05 13.05
Q 161.25 21.45 164.9 30.85 165.25 31.3 165.75 30.9 164.15 18.3 158.4 7 157.4 4.95 156.5 3.85 154.9 1.8 151.5 -0.3 146.5 -3.3 145.85 -3.8 144.1 -5.1 143.35 -5.35 142.6 -5.6 141.85 -5.4 141.1 -5.15 140.75 -4.55 140.1 -3.5 141.05 -2.25
M 52.25 -19.65
Q 50.4 -18.6 47.85 -16.2 36.85 -5.7 29.45 3.95 20.5 15.55 15.65 27.25 13.05 33.55 13.65 37.6 13.75 38.45 14.1 38.8 14.35 39.05 14.7 39.1 15.05 39.1 15.25 38.9 14.8 36.5 16.5 32.25 22.1 18.4 33.3 4.6 41.95 -6.05 56 -18.95 57.15 -20.1 57.35 -20.8 54.9 -21.15 52.25 -19.65
M 20.05 70.5
Q 17.35 72.8 16.4 78.45 14.35 90.25 17.8 103.4 20.65 114.35 27.55 126.5 34.05 138.05 40.85 144.05 45.85 148.45 50.45 149.65 51.45 149.95 52 149.7 52.4 149.5 52.55 149.1 52.75 148.7 52.5 148.4 50.9 148.9 48.55 147.05 34.5 136.1 24.9 113.4 21.65 105.75 20.45 100.3 19 93.8 19.1 85.5 19.15 80.3 20.05 70.5 Z"/>
</g>
</defs>

<g transform="matrix( 1, 0, 0, 1, 0,0) ">
<use xlink:href="#Layer1_0_FILL"/>
</g>

<g transform="matrix( 1, 0, 0, 1, 0,0) ">
<use xlink:href="#Layer0_0_FILL"/>
</g>
</svg>
